%TF.GenerationSoftware,KiCad,Pcbnew,8.0.1*%
%TF.CreationDate,2024-06-29T09:30:56+05:30*%
%TF.ProjectId,BREADBOARD POWER SUPPLY PCB,42524541-4442-44f4-9152-4420504f5745,rev?*%
%TF.SameCoordinates,Original*%
%TF.FileFunction,Soldermask,Top*%
%TF.FilePolarity,Negative*%
%FSLAX46Y46*%
G04 Gerber Fmt 4.6, Leading zero omitted, Abs format (unit mm)*
G04 Created by KiCad (PCBNEW 8.0.1) date 2024-06-29 09:30:56*
%MOMM*%
%LPD*%
G01*
G04 APERTURE LIST*
G04 Aperture macros list*
%AMRoundRect*
0 Rectangle with rounded corners*
0 $1 Rounding radius*
0 $2 $3 $4 $5 $6 $7 $8 $9 X,Y pos of 4 corners*
0 Add a 4 corners polygon primitive as box body*
4,1,4,$2,$3,$4,$5,$6,$7,$8,$9,$2,$3,0*
0 Add four circle primitives for the rounded corners*
1,1,$1+$1,$2,$3*
1,1,$1+$1,$4,$5*
1,1,$1+$1,$6,$7*
1,1,$1+$1,$8,$9*
0 Add four rect primitives between the rounded corners*
20,1,$1+$1,$2,$3,$4,$5,0*
20,1,$1+$1,$4,$5,$6,$7,0*
20,1,$1+$1,$6,$7,$8,$9,0*
20,1,$1+$1,$8,$9,$2,$3,0*%
G04 Aperture macros list end*
%ADD10O,1.905000X2.000000*%
%ADD11R,1.905000X2.000000*%
%ADD12C,1.900000*%
%ADD13R,1.900000X1.900000*%
%ADD14O,1.400000X1.400000*%
%ADD15C,1.400000*%
%ADD16C,3.000000*%
%ADD17R,3.000000X3.000000*%
%ADD18R,3.500000X3.500000*%
%ADD19RoundRect,0.750000X-0.750000X-1.000000X0.750000X-1.000000X0.750000X1.000000X-0.750000X1.000000X0*%
%ADD20RoundRect,0.875000X-0.875000X-0.875000X0.875000X-0.875000X0.875000X0.875000X-0.875000X0.875000X0*%
%ADD21R,1.700000X1.700000*%
%ADD22O,1.700000X1.700000*%
%ADD23C,1.800000*%
%ADD24R,1.800000X1.800000*%
%ADD25C,1.600000*%
G04 APERTURE END LIST*
D10*
%TO.C,U2*%
X116586000Y-102291000D03*
X114046000Y-102291000D03*
D11*
X111506000Y-102291000D03*
%TD*%
%TO.C,U1*%
X117094000Y-79502000D03*
D10*
X114554000Y-79502000D03*
X112014000Y-79502000D03*
%TD*%
D12*
%TO.C,S1*%
X124088000Y-76708000D03*
X126588000Y-76708000D03*
D13*
X129088000Y-76708000D03*
%TD*%
D14*
%TO.C,R3*%
X131808000Y-96520000D03*
D15*
X124188000Y-96520000D03*
%TD*%
D14*
%TO.C,R2*%
X124188000Y-102108000D03*
D15*
X131808000Y-102108000D03*
%TD*%
%TO.C,R1*%
X122000000Y-83175000D03*
D14*
X129620000Y-83175000D03*
%TD*%
D16*
%TO.C,J7*%
X130048000Y-111880000D03*
D17*
X124968000Y-111880000D03*
%TD*%
D18*
%TO.C,J6*%
X123225000Y-90325000D03*
D19*
X117225000Y-90325000D03*
D20*
X120225000Y-95025000D03*
%TD*%
D17*
%TO.C,J5*%
X124968000Y-68072000D03*
D16*
X130048000Y-68072000D03*
%TD*%
D21*
%TO.C,J4*%
X114046000Y-114080000D03*
D22*
X116586000Y-114080000D03*
X119126000Y-114080000D03*
%TD*%
D21*
%TO.C,J3*%
X114315000Y-66294000D03*
D22*
X116855000Y-66294000D03*
X119395000Y-66294000D03*
%TD*%
%TO.C,J2*%
X137410000Y-114070000D03*
D21*
X137410000Y-111530000D03*
%TD*%
D22*
%TO.C,J1*%
X137410000Y-68412000D03*
D21*
X137410000Y-65872000D03*
%TD*%
D23*
%TO.C,D1*%
X129508000Y-88900000D03*
D24*
X129508000Y-91440000D03*
%TD*%
D25*
%TO.C,C3*%
X114280000Y-107950000D03*
X111780000Y-107950000D03*
%TD*%
%TO.C,C2*%
X113010000Y-73660000D03*
X110510000Y-73660000D03*
%TD*%
%TO.C,C1*%
X118344000Y-73660000D03*
X115844000Y-73660000D03*
%TD*%
M02*
