M48
; DRILL file {KiCad 8.0.1} date 2024-06-29T09:31:21+0530
; FORMAT={-:-/ absolute / inch / decimal}
; #@! TF.CreationDate,2024-06-29T09:31:21+05:30
; #@! TF.GenerationSoftware,Kicad,Pcbnew,8.0.1
; #@! TF.FileFunction,Plated,1,2,PTH
FMAT,2
INCH
; #@! TA.AperFunction,Plated,PTH,ViaDrill
T1C0.0197
; #@! TA.AperFunction,Plated,PTH,ComponentDrill
T2C0.0276
; #@! TA.AperFunction,Plated,PTH,ComponentDrill
T3C0.0315
; #@! TA.AperFunction,Plated,PTH,ComponentDrill
T4C0.0354
; #@! TA.AperFunction,Plated,PTH,ComponentDrill
T5C0.0394
; #@! TA.AperFunction,Plated,PTH,ComponentDrill
T6C0.0433
; #@! TA.AperFunction,Plated,PTH,ComponentDrill
T7C0.0598
%
G90
G05
T1
X4.7815Y-4.13
T2
X4.8031Y-3.2746
X4.8893Y-3.8
X4.8893Y-4.02
X5.1031Y-3.2746
X5.1893Y-3.8
X5.1893Y-4.02
T3
X4.3508Y-2.9
X4.4008Y-4.25
X4.4492Y-2.9
X4.4992Y-4.25
X4.5608Y-2.9
X4.6592Y-2.9
T4
X4.8854Y-3.02
X4.9838Y-3.02
X5.0822Y-3.02
X5.0987Y-3.5
X5.0987Y-3.6
T5
X4.49Y-4.4913
X4.5006Y-2.61
X4.59Y-4.4913
X4.6006Y-2.61
X4.69Y-4.4913
X4.7006Y-2.61
X5.4098Y-2.5934
X5.4098Y-2.6934
X5.4098Y-4.3909
X5.4098Y-4.4909
T6
X4.39Y-4.0272
X4.41Y-3.13
X4.49Y-4.0272
X4.51Y-3.13
X4.59Y-4.0272
X4.61Y-3.13
T7
X4.92Y-2.68
X4.92Y-4.4047
X5.12Y-2.68
X5.12Y-4.4047
T5
G00X4.6152Y-3.5167
M15
G01X4.6152Y-3.5955
M16
G05
G00X4.6939Y-3.7411
M15
G01X4.7726Y-3.7411
M16
G05
G00X4.8514Y-3.5167
M15
G01X4.8514Y-3.5955
M16
G05
M30
