%TF.GenerationSoftware,KiCad,Pcbnew,8.0.1*%
%TF.CreationDate,2024-06-29T09:30:56+05:30*%
%TF.ProjectId,BREADBOARD POWER SUPPLY PCB,42524541-4442-44f4-9152-4420504f5745,rev?*%
%TF.SameCoordinates,Original*%
%TF.FileFunction,Copper,L1,Top*%
%TF.FilePolarity,Positive*%
%FSLAX46Y46*%
G04 Gerber Fmt 4.6, Leading zero omitted, Abs format (unit mm)*
G04 Created by KiCad (PCBNEW 8.0.1) date 2024-06-29 09:30:56*
%MOMM*%
%LPD*%
G01*
G04 APERTURE LIST*
G04 Aperture macros list*
%AMRoundRect*
0 Rectangle with rounded corners*
0 $1 Rounding radius*
0 $2 $3 $4 $5 $6 $7 $8 $9 X,Y pos of 4 corners*
0 Add a 4 corners polygon primitive as box body*
4,1,4,$2,$3,$4,$5,$6,$7,$8,$9,$2,$3,0*
0 Add four circle primitives for the rounded corners*
1,1,$1+$1,$2,$3*
1,1,$1+$1,$4,$5*
1,1,$1+$1,$6,$7*
1,1,$1+$1,$8,$9*
0 Add four rect primitives between the rounded corners*
20,1,$1+$1,$2,$3,$4,$5,0*
20,1,$1+$1,$4,$5,$6,$7,0*
20,1,$1+$1,$6,$7,$8,$9,0*
20,1,$1+$1,$8,$9,$2,$3,0*%
G04 Aperture macros list end*
%TA.AperFunction,ComponentPad*%
%ADD10O,1.905000X2.000000*%
%TD*%
%TA.AperFunction,ComponentPad*%
%ADD11R,1.905000X2.000000*%
%TD*%
%TA.AperFunction,ComponentPad*%
%ADD12C,1.900000*%
%TD*%
%TA.AperFunction,ComponentPad*%
%ADD13R,1.900000X1.900000*%
%TD*%
%TA.AperFunction,ComponentPad*%
%ADD14O,1.400000X1.400000*%
%TD*%
%TA.AperFunction,ComponentPad*%
%ADD15C,1.400000*%
%TD*%
%TA.AperFunction,ComponentPad*%
%ADD16C,3.000000*%
%TD*%
%TA.AperFunction,ComponentPad*%
%ADD17R,3.000000X3.000000*%
%TD*%
%TA.AperFunction,ComponentPad*%
%ADD18R,3.500000X3.500000*%
%TD*%
%TA.AperFunction,ComponentPad*%
%ADD19RoundRect,0.750000X-0.750000X-1.000000X0.750000X-1.000000X0.750000X1.000000X-0.750000X1.000000X0*%
%TD*%
%TA.AperFunction,ComponentPad*%
%ADD20RoundRect,0.875000X-0.875000X-0.875000X0.875000X-0.875000X0.875000X0.875000X-0.875000X0.875000X0*%
%TD*%
%TA.AperFunction,ComponentPad*%
%ADD21R,1.700000X1.700000*%
%TD*%
%TA.AperFunction,ComponentPad*%
%ADD22O,1.700000X1.700000*%
%TD*%
%TA.AperFunction,ComponentPad*%
%ADD23C,1.800000*%
%TD*%
%TA.AperFunction,ComponentPad*%
%ADD24R,1.800000X1.800000*%
%TD*%
%TA.AperFunction,ComponentPad*%
%ADD25C,1.600000*%
%TD*%
%TA.AperFunction,ViaPad*%
%ADD26C,0.900000*%
%TD*%
%TA.AperFunction,Conductor*%
%ADD27C,0.350000*%
%TD*%
%TA.AperFunction,Conductor*%
%ADD28C,0.200000*%
%TD*%
G04 APERTURE END LIST*
D10*
%TO.P,U2,3,VI*%
%TO.N,/12V*%
X116586000Y-102291000D03*
%TO.P,U2,2,VO*%
%TO.N,/3.3V*%
X114046000Y-102291000D03*
D11*
%TO.P,U2,1,ADJ*%
%TO.N,Net-(U2-ADJ)*%
X111506000Y-102291000D03*
%TD*%
%TO.P,U1,1,VI*%
%TO.N,/12V*%
X117094000Y-79502000D03*
D10*
%TO.P,U1,2,GND*%
%TO.N,GND*%
X114554000Y-79502000D03*
%TO.P,U1,3,VO*%
%TO.N,/5V*%
X112014000Y-79502000D03*
%TD*%
D12*
%TO.P,S1,3*%
%TO.N,unconnected-(S1-Pad3)*%
X124088000Y-76708000D03*
%TO.P,S1,2*%
%TO.N,/PWR_input*%
X126588000Y-76708000D03*
D13*
%TO.P,S1,1*%
%TO.N,/12V*%
X129088000Y-76708000D03*
%TD*%
D14*
%TO.P,R3,2*%
%TO.N,Net-(U2-ADJ)*%
X131808000Y-96520000D03*
D15*
%TO.P,R3,1*%
%TO.N,GND*%
X124188000Y-96520000D03*
%TD*%
D14*
%TO.P,R2,2*%
%TO.N,/3.3V*%
X124188000Y-102108000D03*
D15*
%TO.P,R2,1*%
%TO.N,Net-(U2-ADJ)*%
X131808000Y-102108000D03*
%TD*%
%TO.P,R1,1*%
%TO.N,Net-(D1-A)*%
X122000000Y-83175000D03*
D14*
%TO.P,R1,2*%
%TO.N,/12V*%
X129620000Y-83175000D03*
%TD*%
D16*
%TO.P,J7,2,Pin_2*%
%TO.N,/PWR_OUT_BOT*%
X130048000Y-111880000D03*
D17*
%TO.P,J7,1,Pin_1*%
%TO.N,GND*%
X124968000Y-111880000D03*
%TD*%
D18*
%TO.P,J6,1*%
%TO.N,/PWR_input*%
X123225000Y-90325000D03*
D19*
%TO.P,J6,2*%
%TO.N,GND*%
X117225000Y-90325000D03*
D20*
%TO.P,J6,3*%
X120225000Y-95025000D03*
%TD*%
D17*
%TO.P,J5,1,Pin_1*%
%TO.N,GND*%
X124968000Y-68072000D03*
D16*
%TO.P,J5,2,Pin_2*%
%TO.N,/PWR_OUT_TOP*%
X130048000Y-68072000D03*
%TD*%
D21*
%TO.P,J4,1,Pin_1*%
%TO.N,/3.3V*%
X114046000Y-114080000D03*
D22*
%TO.P,J4,2,Pin_2*%
%TO.N,/PWR_OUT_BOT*%
X116586000Y-114080000D03*
%TO.P,J4,3,Pin_3*%
%TO.N,/5V*%
X119126000Y-114080000D03*
%TD*%
D21*
%TO.P,J3,1,Pin_1*%
%TO.N,/3.3V*%
X114315000Y-66294000D03*
D22*
%TO.P,J3,2,Pin_2*%
%TO.N,/PWR_OUT_TOP*%
X116855000Y-66294000D03*
%TO.P,J3,3,Pin_3*%
%TO.N,/5V*%
X119395000Y-66294000D03*
%TD*%
%TO.P,J2,2,Pin_2*%
%TO.N,/PWR_OUT_BOT*%
X137410000Y-114070000D03*
D21*
%TO.P,J2,1,Pin_1*%
%TO.N,GND*%
X137410000Y-111530000D03*
%TD*%
D22*
%TO.P,J1,2,Pin_2*%
%TO.N,/PWR_OUT_TOP*%
X137410000Y-68412000D03*
D21*
%TO.P,J1,1,Pin_1*%
%TO.N,GND*%
X137410000Y-65872000D03*
%TD*%
D23*
%TO.P,D1,2,A*%
%TO.N,Net-(D1-A)*%
X129508000Y-88900000D03*
D24*
%TO.P,D1,1,K*%
%TO.N,GND*%
X129508000Y-91440000D03*
%TD*%
D25*
%TO.P,C3,1*%
%TO.N,/3.3V*%
X114280000Y-107950000D03*
%TO.P,C3,2*%
%TO.N,GND*%
X111780000Y-107950000D03*
%TD*%
%TO.P,C2,1*%
%TO.N,/5V*%
X113010000Y-73660000D03*
%TO.P,C2,2*%
%TO.N,GND*%
X110510000Y-73660000D03*
%TD*%
%TO.P,C1,1*%
%TO.N,/12V*%
X118344000Y-73660000D03*
%TO.P,C1,2*%
%TO.N,GND*%
X115844000Y-73660000D03*
%TD*%
D26*
%TO.N,/3.3V*%
X121450000Y-104902000D03*
%TD*%
D27*
%TO.N,/PWR_OUT_TOP*%
X128725000Y-66350000D02*
X130048000Y-68072000D01*
X127744000Y-65019000D02*
X128725000Y-66350000D01*
X118130000Y-65019000D02*
X127744000Y-65019000D01*
X116855000Y-66294000D02*
X118130000Y-65019000D01*
X137070000Y-68072000D02*
X137410000Y-68412000D01*
X130048000Y-68072000D02*
X137070000Y-68072000D01*
%TO.N,/PWR_OUT_BOT*%
X133571000Y-115403000D02*
X136077000Y-115403000D01*
X136077000Y-115403000D02*
X137410000Y-114070000D01*
X130048000Y-111880000D02*
X133571000Y-115403000D01*
X126573000Y-115355000D02*
X130048000Y-111880000D01*
X117861000Y-115355000D02*
X126573000Y-115355000D01*
X116586000Y-114080000D02*
X117861000Y-115355000D01*
%TO.N,/PWR_input*%
X122577000Y-78083000D02*
X120396000Y-80264000D01*
X124657544Y-78083000D02*
X122577000Y-78083000D01*
X125463000Y-77277544D02*
X124657544Y-78083000D01*
X126588000Y-76708000D02*
X125463000Y-76708000D01*
X125463000Y-76708000D02*
X125463000Y-77277544D01*
X120396000Y-87496000D02*
X123225000Y-90325000D01*
X120396000Y-80264000D02*
X120396000Y-87496000D01*
%TO.N,/12V*%
X130948000Y-81847000D02*
X129620000Y-83175000D01*
X129088000Y-76708000D02*
X130948000Y-78568000D01*
X130948000Y-78568000D02*
X130948000Y-81847000D01*
D28*
%TO.N,Net-(D1-A)*%
X127725000Y-88900000D02*
X129508000Y-88900000D01*
X122000000Y-83175000D02*
X127725000Y-88900000D01*
D27*
%TO.N,/3.3V*%
X114280000Y-109240000D02*
X114280000Y-107950000D01*
X111760000Y-111760000D02*
X114280000Y-109240000D01*
X114046000Y-114046000D02*
X111760000Y-111760000D01*
X114046000Y-114080000D02*
X114046000Y-114046000D01*
X114046000Y-108184000D02*
X114280000Y-107950000D01*
X113030000Y-106700000D02*
X114280000Y-107950000D01*
X113030000Y-105664000D02*
X113030000Y-106700000D01*
X114046000Y-104648000D02*
X113030000Y-105664000D01*
X114046000Y-102291000D02*
X114046000Y-104648000D01*
X114280000Y-102525000D02*
X114046000Y-102291000D01*
X121450000Y-104846000D02*
X121450000Y-104902000D01*
X124188000Y-102108000D02*
X121450000Y-104846000D01*
D28*
%TO.N,/5V*%
X120650000Y-112556000D02*
X119126000Y-114080000D01*
X120650000Y-102362000D02*
X120650000Y-112556000D01*
X119888000Y-101600000D02*
X120650000Y-102362000D01*
X117856000Y-101600000D02*
X119888000Y-101600000D01*
X116524076Y-100268076D02*
X117856000Y-101600000D01*
X116524076Y-92993002D02*
X116524076Y-100268076D01*
X112014000Y-88482926D02*
X116524076Y-92993002D01*
X112014000Y-79502000D02*
X112014000Y-88482926D01*
D27*
%TO.N,/3.3V*%
X114046000Y-99822000D02*
X109285000Y-95061000D01*
X114046000Y-102291000D02*
X114046000Y-99822000D01*
D28*
%TO.N,Net-(U2-ADJ)*%
X131808000Y-102108000D02*
X131808000Y-96520000D01*
%TO.N,/5V*%
X113010000Y-72679000D02*
X113010000Y-73660000D01*
X119395000Y-66294000D02*
X113010000Y-72679000D01*
D27*
%TO.N,/3.3V*%
X113624000Y-66294000D02*
X109285000Y-70633000D01*
X114315000Y-66294000D02*
X113624000Y-66294000D01*
D28*
%TO.N,/5V*%
X112014000Y-74656000D02*
X113010000Y-73660000D01*
X112014000Y-79502000D02*
X112014000Y-74656000D01*
D27*
%TO.N,/12V*%
X118344000Y-78252000D02*
X117094000Y-79502000D01*
X118344000Y-73660000D02*
X118344000Y-78252000D01*
X126040000Y-73660000D02*
X129088000Y-76708000D01*
X118344000Y-73660000D02*
X126040000Y-73660000D01*
%TO.N,/3.3V*%
X109285000Y-70633000D02*
X109285000Y-95061000D01*
%TO.N,/PWR_OUT_TOP*%
X130388000Y-68412000D02*
X130048000Y-68072000D01*
%TD*%
M02*
